<svg width="96" height="96" xmlns="http://www.w3.org/2000/svg" xmlns:xlink="http://www.w3.org/1999/xlink" xml:space="preserve" overflow="hidden"><g transform="translate(-64 -388)"><path d="M91 407 91 415 83 415 83 407 91 407ZM97 401 77 401 77 421 97 421 97 401Z" fill="#FFFFFF"/><path d="M91 457 91 465 83 465 83 457 91 457ZM97 451 77 451 77 471 97 471 97 451Z" fill="#FFFFFF"/><path d="M141 407 141 415 133 415 133 407 141 407ZM147 401 127 401 127 421 147 421 147 401Z" fill="#FFFFFF"/><path d="M109 433 89 433 89 427 103 427 103 401 121 401 121 407 109 407Z" fill="#FFFFFF"/><path d="M115 413 121 413 121 421 115 421Z" fill="#FFFFFF"/><path d="M114 457 103 457 103 439 115 439 115 427 133 427 133 439 147 439 147 445 127 445 127 433 121 433 121 445 109 445 109 451 114 451Z" fill="#FFFFFF"/><path d="M97 445 77 445 77 427 83 427 83 439 97 439Z" fill="#FFFFFF"/><path d="M127 471 103 471 103 465 121 465 121 451 127 451Z" fill="#FFFFFF"/><path d="M139 427 147 427 147 433 139 433Z" fill="#FFFFFF"/><path d="M147 471 133 471 133 451 147 451 147 457 139 457 139 465 147 465Z" fill="#FFFFFF"/></g></svg>