<svg width="96" height="96" xmlns="http://www.w3.org/2000/svg" xmlns:xlink="http://www.w3.org/1999/xlink" xml:space="preserve" overflow="hidden"><g transform="translate(-55 -264)"><path d="M100.415 286C103.176 286 105.415 283.761 105.415 281 105.415 278.239 103.176 276 100.415 276 97.6534 276 95.4148 278.239 95.4148 281 95.4148 283.761 97.6534 286 100.415 286ZM100.415 278C102.072 278 103.415 279.343 103.415 281 103.415 282.657 102.072 284 100.415 284 98.7579 284 97.4148 282.657 97.4148 281 97.4167 279.344 98.7587 278.002 100.415 278Z" fill="#FFFFFF"/><path d="M119.415 294C119.415 295.105 118.519 296 117.415 296 116.31 296 115.415 295.105 115.415 294 115.415 292.895 116.31 292 117.415 292 118.519 292 119.415 292.895 119.415 294Z" fill="#FFFFFF"/><path d="M83.4148 284C83.4148 285.105 82.5194 286 81.4148 286 80.3102 286 79.4148 285.105 79.4148 284 79.4148 282.895 80.3102 282 81.4148 282 82.5194 282 83.4148 282.895 83.4148 284Z" fill="#FFFFFF"/><path d="M139.415 294C141.624 294 143.415 292.209 143.415 290 143.415 287.791 141.624 286 139.415 286 137.206 286 135.415 287.791 135.415 290 135.415 292.209 137.206 294 139.415 294ZM139.415 288C140.519 288 141.415 288.895 141.415 290 141.415 291.105 140.519 292 139.415 292 138.31 292 137.415 291.105 137.415 290 137.416 288.896 138.311 288.001 139.415 288Z" fill="#FFFFFF"/><path d="M128.915 281C130.296 281 131.415 279.881 131.415 278.5 131.415 277.119 130.296 276 128.915 276 127.534 276 126.415 277.119 126.415 278.5 126.415 279.881 127.534 281 128.915 281Z" fill="#FFFFFF"/><path d="M64.4148 324C62.7579 324 61.4148 325.343 61.4148 327 61.4148 328.657 62.7579 330 64.4148 330 66.0717 330 67.4148 328.657 67.4148 327 67.4148 325.343 66.0717 324 64.4148 324ZM64.4148 328C63.8625 328 63.4148 327.552 63.4148 327 63.4148 326.448 63.8625 326 64.4148 326 64.9671 326 65.4148 326.448 65.4148 327 65.4142 327.552 64.9668 327.999 64.4148 328Z" fill="#FFFFFF"/><path d="M145.818 336.267 145.818 336.266C145.277 334.154 143.636 332.499 141.528 331.941 141.355 329.645 140.13 327.557 138.208 326.288L138.208 305C138.2 302.242 135.966 300.008 133.208 300L101.792 300C102.197 299.229 102.411 298.371 102.415 297.5 102.411 294.464 99.9507 292.003 96.9146 292 95.5234 291.999 94.1851 292.532 93.1753 293.489 92.397 293.131 91.5442 292.965 90.6885 293.005 89.8736 290.091 86.8501 288.388 83.9354 289.203 83.2746 289.388 82.6543 289.695 82.1069 290.109 78.031 287.792 72.8487 289.218 70.5319 293.294 70.2126 293.856 69.9584 294.452 69.7744 295.072 69.4902 295.024 69.2026 295 68.9144 295 65.8768 294.998 63.413 297.459 63.4114 300.497 63.4098 303.343 65.5799 305.72 68.4144 305.978L68.4144 305.978C68.4058 307.386 68.774 308.77 69.4808 309.988 66.4341 311.882 65.4992 315.887 67.3927 318.933 68.5789 320.842 70.6674 322.002 72.9146 322 73.3494 321.995 73.7826 321.946 74.2075 321.853L74.2075 333C74.2156 335.758 76.4494 337.992 79.2075 338L106.769 338C105.971 341.219 107.935 344.475 111.154 345.272 112.107 345.508 113.103 345.507 114.056 345.269 114.297 345.207 114.534 345.129 114.765 345.034 118.519 348.561 124.219 349.008 128.477 346.11 131.877 347.692 135.924 346.516 137.946 343.357 141.053 344.497 144.495 342.901 145.634 339.794 146.049 338.664 146.113 337.434 145.818 336.266ZM68.4146 315.5C68.4237 313.639 69.5716 311.973 71.3076 311.301L72.5727 310.816C72.5777 310.815 72.5806 310.81 72.5792 310.805 72.5788 310.803 72.578 310.802 72.5769 310.801L71.7305 309.743C70.6705 308.441 70.2196 306.747 70.4922 305.091L70.6904 303.787C70.6912 303.782 70.6875 303.776 70.682 303.776 70.6811 303.776 70.6801 303.776 70.6792 303.776L69.2539 303.966C69.1417 303.985 69.0284 303.997 68.9146 304 66.9844 304.003 65.4174 302.44 65.4148 300.51 65.4121 298.58 66.9747 297.013 68.9049 297.01 69.3343 297.009 69.7602 297.088 70.1611 297.242L71.2995 297.677C71.3046 297.679 71.3104 297.677 71.3124 297.672 71.3127 297.671 71.3129 297.67 71.313 297.669L71.5059 296.466C72.0697 292.928 75.3946 290.517 78.9324 291.081 79.9032 291.236 80.826 291.609 81.6313 292.172L82.3183 292.652 82.3311 292.651 82.918 292.053C84.2594 290.676 86.4626 290.648 87.8391 291.989 88.445 292.58 88.8151 293.371 88.88 294.214L88.9747 295.361C88.9752 295.367 88.98 295.371 88.9855 295.37 88.986 295.37 88.9865 295.37 88.987 295.37L90.107 295.105C91.0415 294.866 92.0334 295.038 92.8331 295.578L93.5949 296.079C93.5993 296.082 93.6051 296.081 93.6083 296.077L94.17 295.358C95.3474 293.835 97.5369 293.554 99.0605 294.732 100.584 295.909 100.865 298.098 99.6874 299.622 99.2703 300.162 98.704 300.567 98.0587 300.788L97.3437 301.037C97.3397 301.039 97.3371 301.043 97.3371 301.047L97.3902 301.803C97.3946 301.862 97.4015 301.92 97.4147 302 97.4194 303.653 96.0833 304.996 94.4302 305.001 93.0486 305.005 91.8439 304.063 91.5147 302.721L91.3431 302.032C91.3421 302.028 91.3385 302.025 91.3342 302.024L90.6266 301.966C90.1734 301.93 89.7318 301.805 89.3272 301.598L88.4049 301.123C88.4 301.12 88.394 301.122 88.3914 301.127 88.3914 301.128 88.3913 301.128 88.3912 301.128L87.96 302.071C87.1464 303.851 85.3715 304.995 83.4146 305L82.4246 305C82.4191 305 82.4146 305.005 82.4146 305.01L82.4146 306C82.4169 307.831 81.5791 309.562 80.1416 310.696L79.4078 311.28C79.4036 311.284 79.4028 311.29 79.4059 311.294L79.9487 312.058C80.7473 313.169 80.4943 314.716 79.3838 315.515 79.0145 315.78 78.5791 315.939 78.1255 315.974L77.4391 316.032C77.4349 316.033 77.4314 316.035 77.4303 316.039L77.2461 316.703C76.5833 319.097 74.1054 320.5 71.7117 319.837 69.7624 319.297 68.4133 317.523 68.4146 315.5ZM76.2075 333 76.2075 321.077C77.4609 320.343 78.4323 319.211 78.9668 317.86 81.3727 317.292 82.8627 314.882 82.2949 312.476 82.2315 312.207 82.1432 311.944 82.0313 311.691 83.3286 310.419 84.1505 308.74 84.36 306.935 86.4021 306.651 88.2166 305.485 89.3228 303.745 89.4747 303.791 89.6288 303.83 89.7852 303.862 90.809 306.423 93.7146 307.668 96.2751 306.645 98.0436 305.938 99.2558 304.286 99.4 302.387 99.6244 302.273 99.8407 302.143 100.047 302L133.207 302C134.862 302.005 136.203 303.345 136.207 305L136.207 325.344C133.305 324.462 130.158 325.422 128.242 327.773 126.952 326.938 125.502 326.384 123.984 326.147 124.131 325.792 124.207 325.41 124.207 325.025L124.207 312.975C124.203 311.334 122.874 310.005 121.233 310L91.1821 310C89.5413 310.005 88.2123 311.334 88.2075 312.975L88.2075 325.025C88.2123 326.666 89.5413 327.995 91.1821 328L116.007 328C114.076 329.345 112.627 331.272 111.872 333.5 111.623 333.526 111.376 333.569 111.134 333.63 109.746 333.982 108.533 334.824 107.717 336L79.2075 336C77.5527 335.995 76.2123 334.655 76.2075 333ZM122.207 325.025C122.206 325.563 121.771 325.998 121.233 326L91.1821 326C90.6445 325.998 90.2091 325.563 90.2075 325.025L90.2075 312.975C90.2091 312.437 90.6445 312.002 91.1821 312L121.232 312C121.77 312.002 122.206 312.437 122.207 312.975ZM140.972 341.606C139.971 341.857 138.911 341.708 138.018 341.192L137.085 340.658C137.08 340.655 137.074 340.657 137.071 340.661 137.071 340.662 137.071 340.662 137.071 340.662L136.615 341.636C135.336 344.385 132.071 345.577 129.322 344.298 129.174 344.229 129.03 344.154 128.889 344.072L128.315 343.742 128.304 343.742 127.779 344.147C124.1 346.982 118.867 346.548 115.705 343.145L115.182 342.584 115.17 342.582 114.497 342.948C114.204 343.114 113.892 343.242 113.568 343.329 111.425 343.867 109.252 342.565 108.715 340.422 108.177 338.279 109.479 336.107 111.622 335.569 111.949 335.494 112.283 335.459 112.619 335.466L113.385 335.47C113.39 335.47 113.394 335.467 113.395 335.463L113.592 334.722C114.852 329.921 119.766 327.051 124.567 328.311 125.767 328.626 126.889 329.186 127.862 329.956L128.744 330.651C128.749 330.655 128.755 330.654 128.758 330.65 128.759 330.65 128.759 330.649 128.759 330.649L129.338 329.686C130.896 327.081 134.27 326.232 136.875 327.79 138.604 328.824 139.628 330.72 139.545 332.733L139.508 333.655C139.508 333.66 139.512 333.664 139.517 333.665L140.434 333.766C142.626 334 144.212 335.966 143.979 338.157 143.801 339.824 142.6 341.202 140.973 341.606Z" fill="#FFFFFF"/></g></svg>